<?xml version="1.0" encoding="utf-8"?>
<!-- Generator: Adobe Illustrator 26.0.1, SVG Export Plug-In . SVG Version: 6.00 Build 0)  -->
<svg version="1.1" id="Layer_1" xmlns="http://www.w3.org/2000/svg" xmlns:xlink="http://www.w3.org/1999/xlink" x="0px" y="0px"
	 viewBox="0 0 995 474" style="enable-background:new 0 0 995 474;" xml:space="preserve">
<style type="text/css">
	.st0{fill:#FFFFFF;}
	.st1{fill:#2E3892;}
	.st2{fill:#2783C5;}
	.st3{fill:#2A68B3;}
	.st4{fill:#FEFEFE;}
	.st5{fill:#2C499E;}
	.st6{fill:#2B86C7;stroke:#2B86C7;stroke-width:4;stroke-linecap:round;stroke-linejoin:round;stroke-miterlimit:10;}
</style>
<rect x="-737" y="523" class="st0" width="199" height="368"/>
<rect x="137" y="234.48" class="st0" width="57.6" height="106.52"/>
<path class="st1" d="M59.2,243.07c-0.04-0.75-0.11-1.5-0.11-2.25c0-35.25,0.01-70.49,0.02-105.74c0-2.39,0-2.4,2.61-2.4
	c70.67,0,141.35,0,212.02,0c3,0,2.62-0.33,2.62,2.54c0.01,27.08,0.02,54.16,0.02,81.24c0,0.69-0.05,1.38-0.08,2.07
	c-1.28-0.66-0.91-1.85-0.92-2.84c-0.04-10.36-0.02-20.73-0.02-31.09c0-3.47,0-3.48-3.75-3.48c-69.25,0-138.49,0-207.74,0
	c-3.83,0-3.84,0-3.84,3.61c0,12.75,0,25.5,0,38.25c0,0.75,0.04,1.51-0.06,2.26c0.09,5.23,0.03,10.46,0.03,15.69
	c0,0.56-0.02,1.12-0.26,1.65C59.64,242.82,59.46,242.98,59.2,243.07z"/>
<path class="st2" d="M156.77,224.64c-1.46,0.69-2.71-0.45-4.17-0.44c-21.19,0.1-42.39,0.07-63.58,0.07
	c-9.86,0-19.73,0.01-29.59,0.01c-0.01-15.34-0.01-30.68-0.07-46.02c0-1.37,0.52-1.79,1.77-1.65c0.33,0.04,0.67,0.01,1,0.01
	c70.37,0,140.75,0,211.12,0c2.75,0,2.75,0,2.76,2.83c0,11.81,0,23.61,0.02,35.42c0,0.71-0.23,1.47,0.26,2.13
	c0.03,10.44,0.07,20.89,0.08,31.33c0,8.38-0.05,16.76-0.07,25.14c-0.51-0.73-0.26-1.56-0.26-2.33c-0.02-14.88-0.05-29.76,0.01-44.64
	c0.01-1.71-0.38-2.27-2.2-2.27c-29.56,0.06-59.12,0.02-88.68,0.08c-2.43,0-4.87,0.49-7.3,0.75c0.08-1.1,1.1-1.24,1.79-1.67
	c7.47-4.59,11.56-11.38,11.64-20.01c0.1-11.82-8.14-21.43-19.79-23.41c-7.92-1.35-14.71,1.14-20.34,6.51
	c-4.21,4.02-6.5,9.13-6.81,15.12c-0.38,7.33,2.04,13.46,7.19,18.59c1.19,1.18,2.57,2.11,3.95,3.06
	C156.03,223.6,156.74,223.82,156.77,224.64z"/>
<path class="st3" d="M193.13,274.01c0-10.32,0-20.63,0.01-30.95c-0.64-0.31-1.32-0.17-1.97-0.17c-15.41-0.01-30.82,0.02-46.23-0.05
	c-1.67-0.01-2.07,0.38-2.05,2.07c0.1,8.41,0.06,16.81,0.03,25.22c0,1.05,0.14,2.15-0.55,3.09c-0.88,0.65-1.9,0.56-2.89,0.56
	c-25.74,0.01-51.47,0.01-77.21,0c-0.98-0.01-2.01,0.12-2.88-0.55c-0.28-0.42-0.19-0.9-0.19-1.36c-0.01-9.2-0.01-18.4,0-27.6
	c0-0.4-0.05-0.81,0.14-1.18c0.03-6.27,0.07-12.54,0.1-18.8c0.75-0.73,1.72-0.66,2.64-0.66c30.15-0.01,60.3-0.01,90.45-0.02
	c1.29,0,2.49,0.35,3.72,0.64c1.83,0.25,3.41,1.27,5.2,1.69c1.34,0.32,2.68,0.57,4.05,0.74c1.48,0.37,2.96,0.37,4.43-0.01
	c2.97-0.13,5.58-1.65,8.45-2.18c3.15-0.61,6.33-0.9,9.54-0.89c28.03,0.02,56.05,0.01,84.07,0.01c4.23,0,4.23,0.01,4.23,4.23
	c0,14.48,0,28.96,0.01,43.44c0,0.73-0.09,1.47,0.09,2.19c0,0.18,0.01,0.36,0.01,0.54H193.13z"/>
<path class="st2" d="M165.51,227.11c1.46,0.01,2.93,0.01,4.39,0.02C168.43,227.69,166.97,227.71,165.51,227.11z"/>
<path id="circle" class="st4" d="M156.77,224.64c-4.82-2.84-8.81-6.49-10.98-11.76c-3.87-9.38-2.7-18.2,4.07-25.72
	c6.69-7.43,15.3-9.91,24.92-6.91c9.66,3.01,15.37,9.82,16.78,19.89c1.38,9.87-3.57,19.29-12.34,24.08c-0.46,0.25-0.9,0.55-1.35,0.83
	c-2.63,0.78-5.14,2.07-7.97,2.08c-1.46,0.21-2.93,0.24-4.39-0.02C162.39,227.02,159.52,226.06,156.77,224.64z"/>
<path class="st5" d="M143.94,340.63h-16.37c-37.87,0-68.57-30.7-68.57-68.57v0h84.94V340.63z"/>
<path class="st5" d="M207.57,340.63h-14.52v-68.57h83.09v0C276.14,309.93,245.44,340.63,207.57,340.63z"/>
<polygon class="st6" points="175.16,261.52 143.35,242.89 143.35,339.32 175.16,357 "/>
<path class="st1" d="M-1037.01,533.35c-0.15-2.75-0.42-5.5-0.42-8.25c0.01-129.21,0.04-258.41,0.07-387.62
	c0-8.78,0.01-8.78,9.59-8.78c259.08,0,518.15-0.01,777.23,0.02c10.98,0,9.61-1.2,9.61,9.31c0.05,99.27,0.06,198.53,0.07,297.8
	c0,2.53-0.19,5.05-0.29,7.58c-4.7-2.43-3.34-6.78-3.36-10.4c-0.15-37.99-0.08-75.97-0.09-113.96c0-12.73-0.01-12.74-13.74-12.74
	c-253.84,0-507.67,0-761.51,0c-14.06,0-14.06,0.01-14.06,13.24c0,46.74,0,93.47-0.01,140.21c0,2.76,0.14,5.53-0.22,8.28
	c0.32,19.17,0.11,38.33,0.11,57.5c0,2.05-0.08,4.11-0.95,6.06C-1035.4,532.44-1036.08,533.02-1037.01,533.35z"/>
<path class="st2" d="M-679.34,465.8c-5.36,2.53-9.95-1.65-15.27-1.63c-77.69,0.38-155.38,0.26-233.06,0.27
	c-36.16,0-72.31,0.03-108.47,0.05c-0.05-56.24-0.05-112.48-0.25-168.71c-0.02-5.02,1.9-6.58,6.49-6.04
	c1.21,0.14,2.44,0.02,3.67,0.02c257.97,0,515.95,0,773.92,0c10.1,0,10.1,0,10.1,10.39c0.02,43.28,0.02,86.56,0.09,129.84
	c0,2.61-0.83,5.4,0.97,7.82c0.1,38.28,0.27,76.56,0.28,114.84c0.01,30.72-0.17,61.44-0.27,92.16c-1.87-2.67-0.97-5.71-0.97-8.56
	c-0.08-54.55-0.19-109.09,0.02-163.64c0.02-6.28-1.39-8.33-8.06-8.32c-108.36,0.22-216.72,0.09-325.08,0.28
	c-8.92,0.02-17.84,1.79-26.77,2.75c0.3-4.05,4.03-4.55,6.56-6.11c27.38-16.83,42.38-41.72,42.66-73.36
	c0.38-43.31-29.83-78.55-72.53-85.82c-29.04-4.94-53.93,4.16-74.57,23.86c-15.44,14.73-23.83,33.45-24.95,55.43
	c-1.38,26.89,7.47,49.34,26.36,68.14c4.35,4.33,9.43,7.75,14.47,11.21C-682.08,461.98-679.45,462.79-679.34,465.8z"/>
<path class="st3" d="M-546.08,646.77c0-37.82,0-75.64,0.02-113.46c-2.33-1.15-4.82-0.61-7.22-0.61
	c-56.49-0.04-112.97,0.08-169.46-0.17c-6.1-0.04-7.57,1.41-7.51,7.59c0.36,30.81,0.21,61.63,0.13,92.44c0,3.86,0.5,7.89-2.01,11.33
	c-3.21,2.37-6.96,2.03-10.59,2.03c-94.35,0.04-188.68,0.04-283.02,0c-3.61-0.02-7.38,0.44-10.57-2.01
	c-1.03-1.55-0.71-3.29-0.71-4.99c-0.02-33.73-0.02-67.46,0-101.19c0-1.47-0.17-2.96,0.52-4.32c0.13-22.97,0.25-45.96,0.38-68.93
	c2.75-2.68,6.29-2.41,9.67-2.41c110.52-0.04,221.04-0.04,331.56-0.06c4.74,0,9.15,1.28,13.63,2.33c6.71,0.92,12.5,4.66,19.07,6.21
	c4.93,1.17,9.84,2.08,14.83,2.73c5.41,1.36,10.84,1.34,16.26-0.02c10.89-0.48,20.45-6.04,30.96-7.99
	c11.56-2.22,23.2-3.29,34.99-3.27c102.74,0.06,205.48,0.02,308.19,0.04c15.5,0,15.5,0.02,15.5,15.5c0,53.07,0,106.16,0.02,159.23
	c0,2.68-0.31,5.39,0.31,8.03c0,0.65,0.02,1.32,0.04,1.97H-546.08z"/>
<path class="st2" d="M-647.32,474.87c5.37,0.02,10.73,0.04,16.1,0.06C-636.59,476.97-641.96,477.04-647.32,474.87z"/>
<path id="circle_00000083784858401258582430000011432822084290866819_" class="st4" d="M-679.34,465.8
	c-17.68-10.39-32.29-23.8-40.25-43.12c-14.17-34.37-9.91-66.7,14.93-94.28c24.52-27.23,56.07-36.33,91.34-25.34
	c35.4,11.04,56.34,36,61.51,72.93c5.06,36.19-13.08,70.73-45.24,88.27c-1.7,0.93-3.3,2.03-4.95,3.04
	c-9.65,2.87-18.83,7.59-29.22,7.61c-5.37,0.76-10.74,0.87-16.1-0.06C-658.75,474.55-669.28,471-679.34,465.8z"/>
<path class="st5" d="M-726.36,890.97h-242.81c-37.87,0-68.57-30.7-68.57-68.57V639.62h311.38V890.97z"/>
<path class="st5" d="M-310.35,890.97h-236.02V639.62h304.58v182.79C-241.78,860.27-272.48,890.97-310.35,890.97z"/>
<polygon class="st6" points="-611.94,601.01 -728.56,532.7 -728.56,886.19 -611.94,951 "/>
<g>
	<g>
		<path d="M328.06,217.91v-84.34h19.64v84.34H328.06z"/>
		<path d="M405.65,152.12c5.14,0,9.74,1.02,13.8,3.07c4.05,2.05,7.25,5.18,9.58,9.4c2.33,4.22,3.49,9.62,3.49,16.21v37.11h-18.8
			v-34.22c0-5.22-1.14-9.08-3.43-11.57c-2.29-2.49-5.52-3.74-9.7-3.74c-2.97,0-5.64,0.64-8.01,1.93c-2.37,1.29-4.22,3.17-5.54,5.66
			c-1.33,2.49-1.99,5.78-1.99,9.88v32.05h-18.8v-64.82h17.95v17.95l-3.37-5.42c2.33-4.34,5.66-7.67,10-10
			C395.17,153.29,400.11,152.12,405.65,152.12z"/>
		<path d="M441.79,168.99v-14.46h44.94v14.46H441.79z M476.01,218.87c-7.63,0-13.58-1.95-17.83-5.84c-4.26-3.9-6.39-9.7-6.39-17.41
			v-56.87h18.92v56.51c0,2.73,0.7,4.86,2.11,6.39c1.4,1.53,3.31,2.29,5.72,2.29c3.05,0,5.62-0.8,7.71-2.41l4.94,13.25
			c-1.85,1.37-4.12,2.39-6.81,3.07C481.69,218.53,478.9,218.87,476.01,218.87z"/>
		<path d="M534.08,218.87c-7.39,0-13.86-1.45-19.4-4.34c-5.54-2.89-9.84-6.85-12.89-11.87c-3.05-5.02-4.58-10.74-4.58-17.17
			c0-6.43,1.46-12.17,4.4-17.23c2.93-5.06,7.03-9.02,12.29-11.87c5.26-2.85,11.18-4.28,17.77-4.28c6.34,0,12.07,1.37,17.17,4.1
			c5.1,2.73,9.14,6.59,12.11,11.57c2.97,4.98,4.46,10.96,4.46,17.95c0,0.72-0.04,1.55-0.12,2.47c-0.08,0.92-0.16,1.79-0.24,2.59
			H512.4v-10.96h42.77l-7.35,3.25c0.08-3.37-0.56-6.3-1.93-8.8c-1.37-2.49-3.25-4.44-5.66-5.84c-2.41-1.4-5.22-2.11-8.43-2.11
			c-3.21,0-6.04,0.7-8.49,2.11c-2.45,1.41-4.36,3.37-5.72,5.9c-1.37,2.53-2.05,5.52-2.05,8.98v2.89c0,3.61,0.8,6.75,2.41,9.4
			c1.61,2.65,3.81,4.68,6.63,6.08c2.81,1.41,6.18,2.11,10.12,2.11c3.37,0,6.37-0.52,8.98-1.57c2.61-1.04,5-2.61,7.17-4.7l10,10.84
			c-2.97,3.37-6.71,5.96-11.21,7.77C545.13,217.97,539.95,218.87,534.08,218.87z"/>
		<path d="M577.94,217.91v-64.82h17.95v18.43l-2.53-5.42c1.93-4.58,5.02-8.05,9.28-10.42c4.26-2.37,9.44-3.55,15.54-3.55v17.47
			c-0.72-0.16-1.43-0.28-2.11-0.36c-0.68-0.08-1.35-0.12-1.99-0.12c-5.3,0-9.52,1.49-12.65,4.46c-3.13,2.97-4.7,7.55-4.7,13.74v30.6
			H577.94z"/>
		<path d="M669.27,152.12c5.14,0,9.74,1.02,13.8,3.07c4.05,2.05,7.25,5.18,9.58,9.4c2.33,4.22,3.49,9.62,3.49,16.21v37.11h-18.8
			v-34.22c0-5.22-1.14-9.08-3.43-11.57c-2.29-2.49-5.52-3.74-9.7-3.74c-2.97,0-5.64,0.64-8.01,1.93c-2.37,1.29-4.22,3.17-5.54,5.66
			c-1.33,2.49-1.99,5.78-1.99,9.88v32.05h-18.8v-64.82h17.95v17.95l-3.37-5.42c2.33-4.34,5.66-7.67,10-10
			C658.79,153.29,663.73,152.12,669.27,152.12z"/>
		<path d="M710.72,191.52v-15.06h34.1v15.06H710.72z"/>
	</g>
</g>
</svg>
