<?xml version="1.0" encoding="utf-8"?>
<!-- Generator: Adobe Illustrator 26.0.1, SVG Export Plug-In . SVG Version: 6.00 Build 0)  -->
<svg version="1.1" id="Layer_1" xmlns="http://www.w3.org/2000/svg" xmlns:xlink="http://www.w3.org/1999/xlink" x="0px" y="0px"
	 viewBox="0 0 1080 1080" style="enable-background:new 0 0 1080 1080;" xml:space="preserve">
<style type="text/css">
	.st0{fill:#FFFFFF;}
	.st1{fill:#2E3892;}
	.st2{fill:#2783C5;}
	.st3{fill:#2A68B3;}
	.st4{fill:#FEFEFE;}
	.st5{fill:#2C499E;}
	.st6{fill:#2B86C7;stroke:#2B86C7;stroke-width:4;stroke-linecap:round;stroke-linejoin:round;stroke-miterlimit:10;}
</style>
<rect x="442" y="523" class="st0" width="199" height="368"/>
<rect x="1283.24" y="219.64" class="st0" width="62.21" height="115.05"/>
<path class="st1" d="M1199.22,228.92c-0.04-0.81-0.12-1.62-0.12-2.43c0-38.07,0.01-76.14,0.02-114.21c0-2.59,0-2.59,2.82-2.59
	c76.33,0,152.67,0,229,0c3.24,0,2.83-0.35,2.83,2.74c0.02,29.25,0.02,58.49,0.02,87.74c0,0.74-0.06,1.49-0.09,2.23
	c-1.39-0.71-0.98-2-0.99-3.07c-0.04-11.19-0.02-22.38-0.03-33.58c0-3.75,0-3.75-4.05-3.75c-74.79,0-149.58,0-224.37,0
	c-4.14,0-4.14,0-4.14,3.9c0,13.77,0,27.54,0,41.31c0,0.81,0.04,1.63-0.07,2.44c0.09,5.65,0.03,11.29,0.03,16.94
	c0,0.61-0.02,1.21-0.28,1.78C1199.69,228.65,1199.49,228.82,1199.22,228.92z"/>
<path class="st2" d="M1304.6,209.01c-1.58,0.75-2.93-0.49-4.5-0.48c-22.89,0.11-45.78,0.08-68.67,0.08
	c-10.65,0-21.31,0.01-31.96,0.01c-0.01-16.57-0.01-33.14-0.07-49.71c-0.01-1.48,0.56-1.94,1.91-1.78c0.36,0.04,0.72,0.01,1.08,0.01
	c76.01,0,152.02,0,228.03,0c2.97,0,2.98,0,2.98,3.06c0,12.75,0,25.5,0.03,38.26c0,0.77-0.24,1.59,0.28,2.3
	c0.03,11.28,0.08,22.56,0.08,33.84c0,9.05-0.05,18.1-0.08,27.15c-0.55-0.79-0.28-1.68-0.29-2.52c-0.02-16.07-0.06-32.14,0.01-48.21
	c0.01-1.85-0.41-2.46-2.38-2.45c-31.93,0.06-63.85,0.03-95.78,0.08c-2.63,0-5.26,0.53-7.89,0.81c0.09-1.19,1.19-1.34,1.93-1.8
	c8.07-4.96,12.49-12.29,12.57-21.61c0.11-12.76-8.79-23.14-21.37-25.29c-8.56-1.46-15.89,1.23-21.97,7.03
	c-4.55,4.34-7.02,9.86-7.35,16.33c-0.41,7.92,2.2,14.54,7.77,20.08c1.28,1.28,2.78,2.28,4.26,3.3
	C1303.79,207.89,1304.57,208.13,1304.6,209.01z"/>
<path class="st3" d="M1343.86,262.33c0-11.14,0-22.29,0.01-33.43c-0.69-0.34-1.42-0.18-2.13-0.18c-16.64-0.01-33.29,0.02-49.93-0.05
	c-1.8-0.01-2.23,0.41-2.21,2.24c0.11,9.08,0.06,18.16,0.04,27.24c0,1.14,0.15,2.32-0.59,3.34c-0.95,0.7-2.05,0.6-3.12,0.6
	c-27.8,0.01-55.59,0.01-83.39,0c-1.06-0.01-2.18,0.13-3.11-0.59c-0.3-0.46-0.21-0.97-0.21-1.47c-0.01-9.94-0.01-19.88,0-29.81
	c0-0.43-0.05-0.87,0.15-1.27c0.04-6.77,0.07-13.54,0.11-20.31c0.81-0.79,1.85-0.71,2.85-0.71c32.56-0.01,65.13-0.01,97.69-0.02
	c1.4,0,2.69,0.38,4.02,0.69c1.98,0.27,3.68,1.37,5.62,1.83c1.45,0.35,2.9,0.61,4.37,0.8c1.59,0.4,3.2,0.4,4.79-0.01
	c3.21-0.14,6.03-1.78,9.12-2.35c3.41-0.66,6.84-0.97,10.31-0.96c30.27,0.02,60.54,0.01,90.81,0.01c4.57,0,4.57,0.01,4.57,4.57
	c0,15.64,0,31.28,0.01,46.91c0,0.79-0.09,1.59,0.09,2.37c0,0.19,0.01,0.39,0.01,0.58H1343.86z"/>
<path class="st2" d="M1314.04,211.69c1.58,0.01,3.16,0.01,4.74,0.02C1317.2,212.31,1315.61,212.33,1314.04,211.69z"/>
<path id="circle" class="st4" d="M1304.6,209.01c-5.21-3.06-9.51-7.01-11.86-12.7c-4.18-10.13-2.92-19.65,4.4-27.78
	c7.22-8.02,16.52-10.71,26.91-7.46c10.43,3.25,16.6,10.61,18.12,21.49c1.49,10.66-3.85,20.84-13.33,26.01
	c-0.5,0.27-0.97,0.6-1.46,0.9c-2.84,0.85-5.55,2.23-8.61,2.24c-1.58,0.23-3.16,0.26-4.74-0.02
	C1310.67,211.59,1307.56,210.55,1304.6,209.01z"/>
<path class="st5" d="M1290.74,334.29h-23.18c-37.87,0-68.57-30.7-68.57-68.57v-5.49h91.74V334.29z"/>
<path class="st5" d="M1364.95,334.29h-21.17v-74.06h89.74v5.49C1433.52,303.59,1402.82,334.29,1364.95,334.29z"/>
<polygon class="st6" points="1324.46,248.85 1290.1,228.73 1290.1,332.88 1324.46,351.97 "/>
<path class="st1" d="M141.99,533.35c-0.15-2.75-0.42-5.5-0.42-8.25c0.01-129.21,0.04-258.41,0.07-387.62c0-8.78,0.01-8.78,9.59-8.78
	c259.08,0,518.15-0.01,777.23,0.02c10.98,0,9.61-1.2,9.61,9.31c0.05,99.27,0.06,198.53,0.07,297.8c0,2.53-0.19,5.05-0.29,7.58
	c-4.7-2.43-3.34-6.78-3.36-10.4c-0.15-37.99-0.08-75.97-0.09-113.96c0-12.73-0.01-12.74-13.74-12.74c-253.84,0-507.67,0-761.51,0
	c-14.06,0-14.06,0.01-14.06,13.24c0,46.74,0,93.47-0.01,140.21c0,2.76,0.14,5.53-0.22,8.28c0.32,19.17,0.11,38.33,0.11,57.5
	c0,2.05-0.08,4.11-0.95,6.06C143.6,532.44,142.92,533.02,141.99,533.35z"/>
<path class="st2" d="M499.66,465.8c-5.36,2.53-9.95-1.65-15.27-1.63c-77.69,0.38-155.38,0.26-233.06,0.27
	c-36.16,0-72.31,0.03-108.47,0.05c-0.05-56.24-0.05-112.48-0.25-168.71c-0.02-5.02,1.9-6.58,6.49-6.04
	c1.21,0.14,2.44,0.02,3.67,0.02c257.97,0,515.95,0,773.92,0c10.1,0,10.1,0,10.1,10.39c0.02,43.28,0.02,86.56,0.09,129.84
	c0,2.61-0.83,5.4,0.97,7.82c0.1,38.28,0.27,76.56,0.28,114.84c0.01,30.72-0.17,61.44-0.27,92.16c-1.87-2.67-0.97-5.71-0.97-8.56
	c-0.08-54.55-0.19-109.09,0.02-163.64c0.02-6.28-1.39-8.33-8.06-8.32c-108.36,0.22-216.72,0.09-325.08,0.28
	c-8.92,0.02-17.84,1.79-26.77,2.75c0.3-4.05,4.03-4.55,6.56-6.11c27.38-16.83,42.38-41.72,42.66-73.36
	c0.38-43.31-29.83-78.55-72.53-85.82c-29.04-4.94-53.93,4.16-74.57,23.86c-15.44,14.73-23.83,33.45-24.95,55.43
	c-1.38,26.89,7.47,49.34,26.36,68.14c4.35,4.33,9.43,7.75,14.47,11.21C496.92,461.98,499.55,462.79,499.66,465.8z"/>
<path class="st3" d="M632.92,646.77c0-37.82,0-75.64,0.02-113.46c-2.33-1.15-4.82-0.61-7.22-0.61
	c-56.49-0.04-112.97,0.08-169.46-0.17c-6.1-0.04-7.57,1.41-7.51,7.59c0.36,30.81,0.21,61.63,0.13,92.44c0,3.86,0.5,7.89-2.01,11.33
	c-3.21,2.37-6.96,2.03-10.59,2.03c-94.35,0.04-188.68,0.04-283.02,0c-3.61-0.02-7.38,0.44-10.57-2.01
	c-1.03-1.55-0.71-3.29-0.71-4.99c-0.02-33.73-0.02-67.46,0-101.19c0-1.47-0.17-2.96,0.52-4.32c0.13-22.97,0.25-45.96,0.38-68.93
	c2.75-2.68,6.29-2.41,9.67-2.41c110.52-0.04,221.04-0.04,331.56-0.06c4.74,0,9.15,1.28,13.63,2.33c6.71,0.92,12.5,4.66,19.07,6.21
	c4.93,1.17,9.84,2.08,14.83,2.73c5.41,1.36,10.84,1.34,16.26-0.02c10.89-0.48,20.45-6.04,30.96-7.99
	c11.56-2.22,23.2-3.29,34.99-3.27c102.74,0.06,205.48,0.02,308.19,0.04c15.5,0,15.5,0.02,15.5,15.5c0,53.07,0,106.16,0.02,159.23
	c0,2.68-0.31,5.39,0.31,8.03c0,0.65,0.02,1.32,0.04,1.97H632.92z"/>
<path class="st2" d="M531.68,474.87c5.37,0.02,10.73,0.04,16.1,0.06C542.41,476.97,537.04,477.04,531.68,474.87z"/>
<path id="circle_00000083784858401258582430000011432822084290866819_" class="st4" d="M499.66,465.8
	c-17.68-10.39-32.29-23.8-40.25-43.12c-14.17-34.37-9.91-66.7,14.93-94.28c24.52-27.23,56.07-36.33,91.34-25.34
	c35.4,11.04,56.34,36,61.51,72.93c5.06,36.19-13.08,70.73-45.24,88.27c-1.7,0.93-3.3,2.03-4.95,3.04
	c-9.65,2.87-18.83,7.59-29.22,7.61c-5.37,0.76-10.74,0.87-16.1-0.06C520.25,474.55,509.72,471,499.66,465.8z"/>
<path class="st5" d="M452.64,890.97H209.82c-37.87,0-68.57-30.7-68.57-68.57V639.62h311.38V890.97z"/>
<path class="st5" d="M868.65,890.97H632.64V639.62h304.58v182.79C937.22,860.27,906.52,890.97,868.65,890.97z"/>
<polygon class="st6" points="567.06,601.01 450.44,532.7 450.44,886.19 567.06,951 "/>
<g>
	<g>
		<path d="M1469.06,295.71v-154h35.86v154H1469.06z"/>
		<path d="M1610.73,175.59c9.38,0,17.78,1.87,25.19,5.61c7.4,3.74,13.23,9.46,17.49,17.16c4.25,7.7,6.38,17.57,6.38,29.59v67.76
			h-34.32v-62.48c0-9.53-2.09-16.57-6.27-21.12c-4.18-4.54-10.09-6.82-17.71-6.82c-5.43,0-10.31,1.18-14.63,3.52
			c-4.33,2.35-7.7,5.8-10.12,10.34c-2.42,4.55-3.63,10.56-3.63,18.04v58.52h-34.32V177.35h32.78v32.78l-6.16-9.9
			c4.25-7.92,10.34-14,18.26-18.26C1591.59,177.72,1600.61,175.59,1610.73,175.59z"/>
		<path d="M1676.73,206.39v-26.4h82.06v26.4H1676.73z M1739.21,297.47c-13.94,0-24.79-3.55-32.56-10.67
			c-7.78-7.11-11.66-17.71-11.66-31.79V151.17h34.54v103.18c0,4.99,1.28,8.88,3.85,11.66c2.56,2.79,6.05,4.18,10.45,4.18
			c5.57,0,10.26-1.46,14.08-4.4l9.02,24.2c-3.38,2.5-7.52,4.37-12.43,5.61C1749.59,296.85,1744.49,297.47,1739.21,297.47z"/>
		<path d="M1845.25,297.47c-13.5,0-25.3-2.64-35.42-7.92c-10.12-5.28-17.97-12.5-23.54-21.67c-5.58-9.16-8.36-19.61-8.36-31.35
			c0-11.73,2.67-22.22,8.03-31.46c5.35-9.24,12.83-16.46,22.44-21.67c9.6-5.2,20.42-7.81,32.45-7.81c11.58,0,22.04,2.5,31.35,7.48
			c9.31,4.99,16.68,12.03,22.11,21.12c5.42,9.1,8.14,20.02,8.14,32.78c0,1.32-0.08,2.83-0.22,4.51c-0.15,1.69-0.29,3.27-0.44,4.73
			h-96.14v-20.02h78.1l-13.42,5.94c0.14-6.16-1.03-11.51-3.52-16.06c-2.5-4.54-5.94-8.1-10.34-10.67c-4.4-2.56-9.54-3.85-15.4-3.85
			c-5.87,0-11.04,1.29-15.51,3.85c-4.48,2.57-7.96,6.16-10.45,10.78c-2.5,4.62-3.74,10.09-3.74,16.39v5.28
			c0,6.6,1.46,12.32,4.4,17.16c2.93,4.84,6.96,8.55,12.1,11.11c5.13,2.57,11.29,3.85,18.48,3.85c6.16,0,11.62-0.95,16.39-2.86
			c4.76-1.9,9.13-4.76,13.09-8.58l18.26,19.8c-5.43,6.16-12.25,10.89-20.46,14.19C1865.42,295.82,1855.96,297.47,1845.25,297.47z"/>
		<path d="M1925.33,295.71V177.35h32.78v33.66l-4.62-9.9c3.52-8.36,9.16-14.7,16.94-19.03c7.77-4.32,17.23-6.49,28.38-6.49v31.9
			c-1.32-0.29-2.61-0.51-3.85-0.66c-1.25-0.14-2.46-0.22-3.63-0.22c-9.68,0-17.38,2.72-23.1,8.14c-5.72,5.43-8.58,13.79-8.58,25.08
			v55.88H1925.33z"/>
		<path d="M2092.09,175.59c9.38,0,17.78,1.87,25.19,5.61c7.4,3.74,13.23,9.46,17.49,17.16c4.25,7.7,6.38,17.57,6.38,29.59v67.76
			h-34.32v-62.48c0-9.53-2.09-16.57-6.27-21.12c-4.18-4.54-10.09-6.82-17.71-6.82c-5.43,0-10.31,1.18-14.63,3.52
			c-4.33,2.35-7.7,5.8-10.12,10.34c-2.42,4.55-3.63,10.56-3.63,18.04v58.52h-34.32V177.35h32.78v32.78l-6.16-9.9
			c4.25-7.92,10.34-14,18.26-18.26C2072.95,177.72,2081.97,175.59,2092.09,175.59z"/>
		<path d="M2210.45,295.71h-35.86v-154h35.86V295.71z M2282.83,232.57h-75.24v-30.14h75.24V232.57z M2280.19,141.71h35.64v154
			h-35.64V141.71z"/>
		<path d="M2399.87,297.47c-9.98,0-18.78-1.9-26.4-5.72c-7.63-3.81-13.57-9.68-17.82-17.6c-4.25-7.92-6.38-17.89-6.38-29.92v-66.88
			h34.32v61.6c0,9.98,2.09,17.27,6.27,21.89c4.18,4.62,10.08,6.93,17.71,6.93c5.28,0,9.97-1.17,14.08-3.52
			c4.1-2.34,7.37-5.86,9.79-10.56c2.42-4.69,3.63-10.56,3.63-17.6v-58.74h34.1v118.36h-32.56v-32.78l5.94,9.68
			c-4.11,8.22-9.98,14.41-17.6,18.59C2417.32,295.38,2408.96,297.47,2399.87,297.47z"/>
		<path d="M2501.07,295.71V132.47h34.32v68.86l-2.2,34.98l0.66,35.2v24.2H2501.07z M2570.81,297.47c-10.12,0-18.96-2.16-26.51-6.49
			c-7.56-4.32-13.31-11.03-17.27-20.13c-3.96-9.09-5.94-20.53-5.94-34.32c0-13.93,2.09-25.37,6.27-34.32
			c4.18-8.94,10.01-15.62,17.49-20.02c7.48-4.4,16.13-6.6,25.96-6.6c11.29,0,21.37,2.53,30.25,7.59
			c8.87,5.06,15.91,12.14,21.12,21.23c5.2,9.1,7.81,19.8,7.81,32.12c0,12.32-2.61,23.03-7.81,32.12
			c-5.21,9.1-12.25,16.17-21.12,21.23C2592.18,294.94,2582.1,297.47,2570.81,297.47z M2565.09,269.31c5.72,0,10.81-1.28,15.29-3.85
			c4.47-2.56,8.06-6.34,10.78-11.33c2.71-4.98,4.07-10.85,4.07-17.6c0-6.89-1.36-12.76-4.07-17.6c-2.71-4.84-6.31-8.54-10.78-11.11
			c-4.48-2.56-9.57-3.85-15.29-3.85c-5.72,0-10.86,1.29-15.4,3.85c-4.55,2.57-8.18,6.27-10.89,11.11
			c-2.72,4.84-4.07,10.71-4.07,17.6c0,6.75,1.35,12.62,4.07,17.6c2.71,4.99,6.34,8.77,10.89,11.33
			C2554.23,268.03,2559.37,269.31,2565.09,269.31z"/>
	</g>
</g>
</svg>
